<?xml version="1.0" standalone="no"?>
<!DOCTYPE svg PUBLIC "-//W3C//DTD SVG 20010904//EN"
 "http://www.w3.org/TR/2001/REC-SVG-20010904/DTD/svg10.dtd">
<svg version="1.0" xmlns="http://www.w3.org/2000/svg"
 width="700.000000pt" height="350.000000pt" viewBox="0 0 700.000000 350.000000"
 preserveAspectRatio="xMidYMid meet">
<metadata>
Created by potrace 1.16, written by Peter Selinger 2001-2019
</metadata>
<g transform="translate(0.000000,350.000000) scale(0.099010,-0.099150)"
fill="#000000" stroke="none">
<path d="M3388 2523 c-10 -2 -18 -13 -18 -24 0 -23 -3 -23 -39 -5 -25 14 -29
13 -46 -10 -10 -13 -28 -24 -41 -24 -13 0 -24 -4 -24 -10 0 -5 5 -10 10 -10 6
0 10 -5 10 -10 0 -6 -6 -10 -13 -8 -7 2 -14 -1 -15 -7 -2 -5 7 -11 18 -13 12
-2 19 -9 17 -15 -4 -13 -22 -13 -74 -2 -25 6 -33 4 -33 -6 -1 -17 -35 -59 -48
-59 -5 0 -21 -9 -35 -20 -14 -11 -31 -19 -38 -18 -13 3 -18 -16 -20 -79 -1
-39 -6 -41 -19 -10 -8 20 -9 20 -9 -8 -1 -17 5 -37 12 -44 10 -11 8 -13 -10
-8 -13 3 -26 1 -29 -4 -3 -5 -16 -9 -30 -9 -29 0 -32 -20 -5 -37 22 -14 61 -6
61 13 0 21 21 28 37 11 24 -23 10 -44 -30 -45 -35 -1 -109 -34 -107 -46 1 -4
0 -10 -3 -14 -2 -4 -2 -1 -1 6 2 6 -2 12 -9 13 -7 0 -2 5 11 11 22 11 30 28
12 28 -5 0 -10 7 -10 15 0 8 -4 15 -10 15 -5 0 -10 -9 -10 -19 0 -19 -14 -33
-35 -37 -5 -1 -18 -5 -27 -9 -13 -5 -22 2 -35 29 -22 47 -38 41 -39 -15 0 -40
-3 -44 -30 -50 -19 -4 -24 -8 -14 -12 30 -11 76 -18 118 -17 28 1 42 -3 37 -9
-8 -14 8 -14 37 0 31 14 77 -3 76 -28 -1 -10 1 -30 5 -45 5 -20 1 -34 -21 -59
-51 -62 -63 -72 -75 -60 -6 6 -18 11 -26 11 -10 0 -12 -3 -5 -8 5 -4 17 -17
25 -29 27 -40 91 -83 145 -99 61 -17 81 -36 35 -32 -16 1 -28 5 -25 9 6 10
-138 42 -168 37 -28 -4 -80 -98 -67 -120 5 -7 9 -9 9 -4 0 5 9 1 20 -9 11 -10
17 -22 14 -26 -3 -5 1 -6 9 -3 21 8 31 -14 15 -33 -7 -9 -11 -18 -10 -20 2 -3
1 -7 -2 -10 -3 -4 -6 6 -6 20 0 17 -5 27 -15 27 -18 0 -19 -12 -4 -27 12 -12
0 -42 -30 -78 -20 -23 -21 -51 -3 -48 7 2 12 -5 12 -15 0 -12 -12 -5 -40 26
-37 40 -40 47 -40 102 0 33 -4 60 -10 60 -5 0 -10 -6 -10 -12 0 -9 -4 -8 -10
2 -11 16 -13 8 -10 -29 1 -20 0 -22 -13 -10 -8 8 -13 17 -10 22 2 4 0 7 -4 7
-28 0 -40 -117 -15 -142 9 -9 12 -7 13 7 0 18 1 17 9 -3 8 -18 14 -21 27 -14
10 5 27 6 38 2 20 -7 20 -7 -1 -14 -40 -13 -23 -31 30 -31 60 -1 89 -7 108
-22 7 -6 27 -15 43 -19 39 -9 45 -20 34 -58 -13 -46 -11 -92 5 -105 8 -7 19
-25 25 -42 13 -38 -6 -39 -50 -2 -21 18 -34 24 -37 15 -2 -6 -19 -12 -38 -12
-35 0 -77 -27 -68 -42 3 -5 11 -5 17 1 21 16 63 16 88 -1 39 -25 91 -36 117
-25 12 6 22 14 22 19 0 4 9 -1 20 -12 22 -22 46 -18 72 14 15 18 19 19 28 6 7
-11 12 -12 20 -4 8 8 6 24 -10 58 -17 36 -27 46 -46 46 -27 0 -64 -32 -64 -55
0 -8 -5 -15 -10 -15 -7 0 -7 6 0 19 14 28 13 41 -6 41 -8 0 -12 5 -9 10 3 6 2
10 -4 10 -5 0 -21 11 -35 23 -20 19 -25 31 -21 57 7 57 16 60 150 50 177 -13
350 -20 635 -26 395 -8 380 -7 395 -27 12 -16 13 -16 18 3 4 15 13 20 36 20
35 0 75 -37 93 -87 9 -25 18 -33 36 -33 20 0 22 3 12 15 -12 14 -5 55 10 55 4
0 17 16 29 35 11 19 32 40 45 45 18 6 24 15 21 30 -4 18 9 26 38 21 4 0 7 22
7 50 0 28 -4 48 -9 44 -5 -3 -13 -1 -16 5 -4 6 -15 8 -26 5 -11 -4 -19 -2 -19
5 0 8 11 11 30 8 33 -5 38 7 16 37 -8 11 -12 30 -10 43 3 13 1 21 -5 18 -5 -3
-12 -24 -16 -46 -4 -22 -11 -42 -16 -46 -16 -10 -10 -32 12 -39 11 -4 18 -10
14 -13 -7 -7 -12 -8 -40 -11 -8 0 -12 -7 -9 -16 9 -21 -19 -19 -40 4 -12 14
-14 24 -7 42 5 13 10 18 10 10 1 -11 4 -11 16 -1 12 10 15 10 16 -1 0 -8 5 -1
9 15 11 36 3 51 -18 34 -9 -8 -13 -8 -9 -2 4 7 0 14 -8 18 -8 3 -15 10 -15 16
0 6 -7 19 -16 28 -16 15 -17 14 -12 -16 5 -38 3 -40 -13 -11 -8 16 -8 27 1 43
14 27 -8 79 -29 67 -10 -7 -10 -13 1 -31 10 -18 10 -24 1 -27 -7 -3 -13 -11
-13 -19 0 -8 -5 -14 -11 -14 -6 0 -9 -7 -5 -15 3 -8 -5 -27 -18 -42 -23 -27
-25 -27 -44 -10 -23 21 -41 5 -22 -18 7 -8 9 -15 4 -15 -5 0 -1 -5 9 -11 9 -5
17 -21 17 -34 0 -22 -2 -23 -31 -15 -37 11 -55 26 -21 17 12 -3 20 -1 16 4 -3
5 -18 9 -33 9 -35 0 -68 26 -161 125 -41 44 -96 98 -122 120 -26 22 -46 45
-45 50 2 6 26 11 54 13 45 3 55 -1 87 -29 39 -34 55 -34 37 -1 -6 12 -11 29
-11 39 1 13 5 11 16 -9 18 -35 34 -36 34 -2 0 15 12 38 29 55 16 16 25 31 20
35 -5 3 -9 -1 -9 -8 -1 -8 -6 -6 -15 6 -8 11 -15 25 -15 30 0 7 3 7 8 0 11
-18 56 -11 64 9 7 17 9 17 30 -2 17 -16 34 -21 77 -20 67 2 76 6 59 27 -11 13
-11 14 0 8 11 -7 13 5 10 58 l-3 66 33 0 c36 0 41 11 15 31 -16 12 -17 12 -6
-1 10 -13 8 -16 -8 -16 -10 0 -19 4 -19 8 0 5 -8 5 -17 0 -22 -11 -40 -9 -84
11 -117 51 -163 61 -296 63 -73 1 -136 5 -141 8 -15 9 -215 26 -297 25 -44 -1
-104 -1 -132 -2 -29 0 -53 -5 -53 -10 0 -5 7 -7 15 -3 8 3 15 1 15 -4 0 -6
-10 -10 -23 -10 -29 0 -32 27 -4 36 16 5 17 8 6 15 -8 5 -23 9 -35 9 -23 0
-61 36 -51 47 4 3 7 1 7 -6 0 -7 10 0 23 14 12 14 32 27 44 28 16 1 23 10 28
34 3 20 17 40 35 53 22 15 30 30 30 51 0 16 -5 29 -11 29 -5 0 -7 5 -4 10 3 6
15 10 26 10 10 0 19 5 19 10 0 6 8 10 18 10 16 1 16 1 0 11 -24 13 -23 29 1
29 12 0 26 -12 34 -30 17 -33 8 -45 -23 -35 -11 4 -20 3 -20 -1 0 -15 52 -54
72 -54 20 0 20 1 4 19 -10 11 -15 25 -11 30 12 21 32 11 41 -21 7 -23 17 -34
32 -36 l22 -3 -20 34 -21 35 21 -5 c11 -3 23 -9 26 -14 3 -5 11 -9 17 -9 7 0
6 4 -3 10 -12 7 -12 12 -2 22 9 9 24 8 72 -10 34 -12 58 -17 55 -12 -3 6 -13
10 -21 10 -8 0 -14 7 -14 15 0 8 -5 15 -12 15 -9 0 -9 3 0 12 10 10 17 10 32
0 11 -6 27 -12 35 -12 8 0 15 -7 15 -15 0 -8 6 -12 14 -9 7 3 20 -2 29 -10 17
-18 32 -21 22 -6 -8 13 8 13 21 0 7 -7 17 -5 30 5 19 16 19 16 -2 10 -24 -6
-41 19 -22 31 7 4 8 3 4 -4 -5 -8 0 -12 13 -12 13 0 19 5 15 14 -8 22 11 27
42 11 37 -19 64 -19 64 -1 0 23 22 31 32 12 5 -9 16 -16 24 -16 8 0 12 5 9 11
-4 6 0 9 8 7 9 -2 16 2 17 7 0 6 -14 13 -32 16 -18 3 -50 13 -72 22 -50 22
-59 21 -46 -3 12 -23 -2 -27 -19 -6 -9 11 -8 18 4 30 15 15 14 16 -7 16 -13 0
-34 0 -48 1 -13 0 -27 4 -31 10 -4 6 -15 6 -34 -1 -17 -7 -32 -7 -37 -2 -12
12 -50 3 -43 -9 3 -4 12 -6 20 -2 9 3 22 0 30 -7 9 -8 30 -11 53 -8 37 5 83
-14 69 -29 -4 -3 -7 -3 -7 2 0 4 -7 1 -16 -6 -14 -11 -18 -11 -28 3 -8 11 -21
14 -39 11 -14 -3 -41 0 -59 6 -26 9 -30 9 -20 -1 17 -17 15 -28 -4 -28 -9 0
-18 9 -21 20 -3 11 -10 20 -15 20 -5 0 -6 5 -3 10 12 19 -5 31 -27 19 -15 -8
-22 -8 -27 0 -6 10 -56 23 -131 35 -14 2 -33 2 -42 -1z m305 -568 c70 21 86
22 106 8 12 -8 22 -11 23 -6 1 4 4 -28 7 -71 l6 -80 48 -1 c45 -2 61 7 35 19
-7 3 12 4 42 2 30 -2 46 -2 35 1 -30 8 -41 23 -14 19 43 -6 70 -18 66 -30 -5
-15 -63 -24 -164 -27 -77 -3 -84 -1 -106 23 -13 13 -35 28 -49 31 -27 7 -53
50 -60 102 -3 17 -3 24 -1 17 3 -9 12 -12 26 -7z"/>
<path d="M3116 1111 c-3 -5 3 -20 14 -34 11 -14 20 -29 20 -35 0 -5 9 -21 20
-35 l20 -25 -32 -34 c-17 -18 -35 -32 -40 -30 -4 1 -3 -7 4 -18 12 -19 48 -28
48 -12 0 4 12 12 26 19 26 12 26 12 8 -9 -19 -20 -19 -21 6 -13 14 4 42 18 63
32 21 13 53 25 71 26 19 2 40 8 48 14 11 9 26 9 67 -3 l52 -16 -2 -46 c-2 -29
1 -47 9 -50 7 -2 9 -9 6 -14 -5 -7 -2 -8 7 -2 8 4 20 9 28 11 8 1 17 6 20 11
3 5 25 21 49 36 46 29 50 37 27 56 -8 7 -15 10 -15 7 0 -3 -11 4 -25 17 -15
14 -24 32 -23 46 2 13 -3 25 -9 27 -8 3 -13 -4 -13 -16 0 -26 -34 -45 -68 -36
-33 8 -84 44 -77 54 2 5 -41 11 -97 15 -138 10 -158 15 -170 42 -11 24 -32 32
-42 15z"/>
<path d="M4177 1017 c-8 -13 -20 -40 -25 -61 -9 -31 -8 -37 3 -32 9 3 20 -6
30 -24 19 -36 19 -40 -1 -40 -10 0 -13 -6 -9 -19 3 -10 -1 -23 -8 -29 -20 -17
-126 -41 -177 -41 -25 1 -47 0 -50 -1 -3 -1 -27 -4 -55 -7 -39 -4 -52 -1 -62
13 -12 17 -13 17 -13 -2 0 -18 -7 -19 -94 -18 -97 2 -136 9 -136 25 0 5 -7 9
-16 9 -9 0 -29 9 -45 21 -25 17 -29 18 -29 4 0 -13 -4 -14 -21 -4 -15 8 -19 8
-15 0 4 -6 -1 -12 -11 -13 -25 -2 -36 -4 -53 -11 -15 -7 -104 -3 -195 7 -27 4
-68 8 -90 10 -166 16 -195 20 -195 26 0 5 -9 6 -20 3 -10 -3 -40 2 -65 10 -25
9 -45 13 -45 9 0 -4 -5 0 -10 8 -6 9 -13 11 -17 5 -11 -14 -53 -14 -53 -1 0 6
-5 4 -10 -4 -9 -13 -11 -13 -20 0 -7 11 -10 11 -10 2 0 -7 -4 -10 -10 -7 -17
10 -11 -11 8 -28 24 -22 133 -43 356 -69 334 -38 810 -30 1126 18 133 20 125
15 127 83 3 57 1 60 -37 95 -31 28 -39 42 -36 61 6 31 2 31 -17 2z"/>
</g>
</svg>
