<?xml version="1.0" standalone="no"?>
<!DOCTYPE svg PUBLIC "-//W3C//DTD SVG 20010904//EN"
 "http://www.w3.org/TR/2001/REC-SVG-20010904/DTD/svg10.dtd">
<svg version="1.0" xmlns="http://www.w3.org/2000/svg"
 width="512.000000pt" height="512.000000pt" viewBox="0 0 512.000000 512.000000"
 preserveAspectRatio="xMidYMid meet">

<g transform="translate(0.000000,512.000000) scale(0.100000,-0.100000)"
fill="#000000" stroke="none">
<path d="M800 5106 c-312 -59 -562 -246 -700 -524 -44 -91 -66 -157 -86 -267
-21 -120 -21 -3390 0 -3510 39 -213 131 -389 278 -531 147 -142 306 -222 513
-260 120 -21 3390 -21 3510 0 213 39 389 131 531 278 142 147 222 306 260 513
21 120 21 3390 0 3510 -28 150 -83 288 -163 399 -116 163 -310 305 -493 361
-153 46 -112 45 -1900 44 -1273 -1 -1701 -4 -1750 -13z m3510 -400 c199 -67
333 -201 396 -396 16 -49 18 -108 22 -507 l4 -453 -405 0 -404 0 -52 80 c-209
316 -553 562 -921 655 -242 62 -538 62 -780 0 -368 -93 -712 -339 -921 -655
l-52 -80 -404 0 -405 0 4 453 c4 399 6 458 22 507 73 225 254 381 476 410 30
4 800 7 1710 6 1584 -1 1657 -2 1710 -20z m-1560 -981 c488 -80 873 -459 971
-955 19 -98 17 -338 -4 -439 -100 -472 -455 -828 -927 -927 -116 -25 -344 -25
-460 0 -229 48 -420 148 -586 308 -173 166 -289 377 -340 618 -22 102 -24 341
-5 440 126 639 718 1057 1351 955z"/>
<path d="M3849 4502 c-43 -23 -59 -38 -82 -82 l-28 -55 3 -240 c3 -235 4 -241
28 -283 15 -27 42 -54 70 -70 45 -27 46 -27 285 -30 l240 -3 55 28 c44 23 59
39 82 82 l28 53 0 232 0 232 -27 55 c-23 45 -37 59 -82 82 l-55 27 -232 0
-232 0 -53 -28z"/>
<path d="M2420 3296 c-70 -15 -160 -47 -200 -72 -24 -15 -24 -15 20 -9 63 7
154 -10 214 -41 204 -105 269 -365 138 -553 -131 -189 -400 -216 -570 -57 -83
77 -130 204 -117 316 l5 45 -30 -60 c-48 -99 -65 -176 -64 -310 0 -84 5 -140
18 -185 71 -259 277 -465 536 -536 90 -25 290 -25 380 0 259 71 465 277 536
536 25 90 25 290 0 380 -70 257 -278 466 -531 535 -83 22 -254 28 -335 11z"/>
</g>
</svg>
